<svg width="100" height="100" viewBox="0 0 100 100" fill="none" xmlns="http://www.w3.org/2000/svg">
<rect width="100" height="100" rx="22" fill="url(#paint0_linear_1527_9166)"/>
<path fill-rule="evenodd" clip-rule="evenodd" d="M67.8821 30.7915L78.867 30.0039C79.0125 29.9986 79.0533 30.2004 78.9149 30.2477L67.4208 34.0524C67.4208 34.0524 67.4155 34.0524 67.4137 34.0541C67.4102 34.0541 67.4084 34.0559 67.4048 34.0559C67.2256 34.0945 63.9697 34.8435 64.1454 39.3462C64.3122 43.6139 63.5581 54.4998 52.8429 61.8863C49.7698 64.0053 47.7737 67.3433 47.3531 71.0234C47.1189 73.0739 47.4223 76.6786 47.8038 79.7465C47.834 79.9886 47.5057 80.0991 47.3815 79.8886C45.8077 77.2417 41.1944 67.8081 41.7392 55.9382C41.7693 55.2734 41.221 54.7208 40.5486 54.7349C37.1312 54.805 27.7379 54.3455 21.652 48.6412C21.6413 48.6306 21.6236 48.6166 21.6023 48.5973C21.3379 48.3693 20.3815 47.5431 21.6182 47.3905L38.9747 45.1821C40.4847 44.9944 42.5749 44.6804 43.6466 43.6104C44.2977 42.9597 44.3953 42.6579 44.7431 41.5248C46.1182 37.0361 49.296 27.5394 59.2323 27.0044C59.2323 27.0044 62.9353 26.7466 66.3083 30.1741C66.72 30.5933 67.2931 30.8178 67.8839 30.788L67.8821 30.7915ZM32.0069 43.9262C31.0648 44.0437 30.1262 43.6087 29.5743 42.7965L24.3064 35.0662C24.1023 34.7663 24.3968 34.3891 24.7215 34.5312L41.567 41.9388C41.9521 42.1089 41.8829 42.6895 41.473 42.7404L32.0069 43.9262Z" fill="white"/>
<defs>
<linearGradient id="paint0_linear_1527_9166" x1="-28.6585" y1="100" x2="85.9756" y2="8.53659" gradientUnits="userSpaceOnUse">
<stop offset="0.21003" stop-color="#007CD8"/>
<stop offset="0.63794" stop-color="#00B15C"/>
<stop offset="1" stop-color="#FFD600"/>
</linearGradient>
</defs>
</svg>
